<svg height="471pt" viewBox="0 0 471 471.1454" width="471pt" xmlns="http://www.w3.org/2000/svg" xmlns:xlink="http://www.w3.org/1999/xlink"><linearGradient id="a"><stop offset="0" stop-color="#4761ac"/><stop offset="1" stop-color="#54c2ef"/></linearGradient><linearGradient id="b" gradientTransform="matrix(.99969 0 0 -.99969 .069701 477.851876)" gradientUnits="userSpaceOnUse" x1="-13.9804" x2="485.4059" xlink:href="#a" y1="116.7942" y2="116.7942"/><linearGradient id="c" gradientTransform="matrix(.99969 0 0 -.99969 .069701 477.851876)" gradientUnits="userSpaceOnUse" x1="-13.9804" x2="485.4059" xlink:href="#a" y1="116.7962" y2="116.7962"/><linearGradient id="d" gradientTransform="matrix(.99969 0 0 -.99969 .069701 477.851876)" gradientUnits="userSpaceOnUse" x1="-13.9804" x2="485.4059" xlink:href="#a" y1="101.0917" y2="101.0917"/><linearGradient id="e" gradientTransform="matrix(.99969 0 0 -.99969 .069701 477.851876)" gradientUnits="userSpaceOnUse" x1="-13.9804" x2="485.4059" xlink:href="#a" y1="242.4323" y2="242.4323"/><linearGradient id="f" gradientTransform="matrix(.99969 0 0 -.99969 .069701 477.851876)" gradientUnits="userSpaceOnUse" x1="-13.9804" x2="485.4059" xlink:href="#a" y1="108.944" y2="108.944"/><linearGradient id="g" gradientTransform="matrix(.99969 0 0 -.99969 .069701 477.851876)" gradientUnits="userSpaceOnUse" x1="-13.9804" x2="485.4059" xlink:href="#a" y1="148.2052" y2="148.2052"/><linearGradient id="h" gradientTransform="matrix(.99969 0 0 -.99969 .069701 477.851876)" gradientUnits="userSpaceOnUse" x1="-13.9804" x2="485.4059" xlink:href="#a" y1="77.5349" y2="77.5349"/><linearGradient id="i" gradientTransform="matrix(.99969 0 0 -.99969 .069701 477.851876)" gradientUnits="userSpaceOnUse" x1="-13.9804" x2="485.4059" xlink:href="#a" y1="265.9891" y2="265.9891"/><linearGradient id="j" gradientTransform="matrix(.99969 0 0 -.99969 .069701 477.851876)" gradientUnits="userSpaceOnUse" x1="-13.9804" x2="485.4059" xlink:href="#a" y1="391.6252" y2="391.6252"/><linearGradient id="k" gradientTransform="matrix(.99969 0 0 -.99969 .069701 477.851876)" gradientUnits="userSpaceOnUse" x1="-13.9804" x2="485.4059" xlink:href="#a" y1="281.6936" y2="281.6936"/><path d="m400.414062 314.390625v-55.347656c0-4.335938-3.515624-7.847657-7.851562-7.847657s-7.847656 3.515626-7.847656 7.847657v10.75c-2.480469-2.777344-5.242188-5.289063-8.234375-7.5-14.355469-10.515625-33.214844-13.574219-56.066407-9.128907-4.023437.785157-6.765624 4.527344-6.296874 8.601563 2.394531 16.261719 10.945312 30.984375 23.878906 41.125 10.75 7.59375 23.671875 11.492187 36.824218 11.109375 3.304688-.015625 6.609376-.207031 9.894532-.574219v.964844c-43.136719 4.335937-74.589844 42.820313-70.257813 85.953125 4.335938 43.136719 42.820313 74.589844 85.957031 70.257812 43.132813-4.335937 74.589844-42.820312 70.253907-85.957031-3.734375-37.144531-33.109375-66.519531-70.253907-70.253906zm-53.015624-24.078125c-7.558594-5.8125-13.113282-13.847656-15.882813-22.972656 12.378906-2.058594 25.078125.632812 35.5625 7.535156 7.558594 5.8125 13.113281 13.84375 15.882813 22.972656-12.378907 2.058594-25.082032-.632812-35.5625-7.535156zm45.164062 164.976562c-34.683594 0-62.796875-28.117187-62.796875-62.796874 0-34.683594 28.113281-62.800782 62.796875-62.800782s62.800781 28.117188 62.800781 62.800782c-.042969 34.664062-28.132812 62.757812-62.800781 62.796874zm0 0" fill="url(#b)"/><path d="m361.164062 353.242188h15.699219v15.699218h-15.699219zm0 0" fill="url(#c)"/><path d="m408.261719 353.242188h15.699219v15.699218h-15.699219zm0 0" fill="url(#c)"/><path d="m392.5625 368.941406h15.699219v15.699219h-15.699219zm0 0" fill="url(#d)"/><path d="m314.0625 180.546875c.003906-4.335937-3.511719-7.847656-7.84375-7.851563h-.003906-31.398438v-164.847656c0-4.332031-3.511718-7.847656-7.847656-7.847656 0 0 0 0-.003906 0h-62.796875c-4.335938 0-7.847657 3.511719-7.851563 7.84375v.003906 164.847656h-31.398437c-4.335938 0-7.847657 3.511719-7.847657 7.847657v.003906 282.59375c-.003906 4.332031 3.511719 7.847656 7.84375 7.847656h.003907 141.296875c4.335937 0 7.847656-3.511719 7.847656-7.84375 0-.003906 0-.003906 0-.003906zm-102.046875-164.847656h47.101563v31.398437h-47.101563zm0 47.097656h47.101563v109.898437h-47.101563zm-39.246094 125.597656h125.597657v47.101563h-15.699219v-31.398438h-47.101563v15.699219h31.398438v15.699219h-94.195313zm125.597657 266.894531h-125.597657v-204.09375h125.597657zm0 0" fill="url(#e)"/><path d="m149.21875 266.894531h-141.296875c-4.335937 0-7.8515625 3.519531-7.8476562 7.855469 0 1.144531.2500002 2.277344.7343752 3.3125l54.210937 116.167969v40.914062l-35.4375 21.265625c-3.71875 2.230469-4.921875 7.050782-2.691406 10.769532 1.417969 2.363281 3.972656 3.808593 6.730469 3.808593h109.898437c4.335938 0 7.847657-3.511719 7.847657-7.847656 0-2.757813-1.445313-5.3125-3.808594-6.730469l-35.4375-21.265625v-40.914062l54.210937-116.167969c1.832031-3.929688.132813-8.601562-3.796875-10.433594-1.042968-.484375-2.171875-.734375-3.316406-.734375zm-62.0625 122.277344c-.484375 1.039063-.734375 2.171875-.734375 3.320313v47.097656c-.003906 2.757812 1.445313 5.3125 3.808594 6.730468l14.949219 8.96875h-53.21875l14.949218-8.96875c2.363282-1.417968 3.8125-3.972656 3.808594-6.730468v-47.097656c0-1.148438-.25-2.28125-.734375-3.320313l-49.734375-106.578125h54.574219l-11.394531 28.484375c-1.597657 4.03125.378906 8.59375 4.410156 10.191406 4.011718 1.585938 8.554687-.359375 10.171875-4.363281l13.722656-34.3125h14.488281l-11.394531 28.484375c-1.59375 4.03125.378906 8.59375 4.410156 10.1875 4.015625 1.589844 8.558594-.359375 10.171875-4.363281l13.722656-34.3125h13.757813zm0 0" fill="url(#f)"/><path d="m235.566406 376.792969c26.011719 0 47.101563-21.089844 47.101563-47.101563 0-26.011718-21.089844-47.097656-47.101563-47.097656-26.011718 0-47.097656 21.085938-47.097656 47.097656.027344 26 21.097656 47.070313 47.097656 47.101563zm0-78.5c17.34375 0 31.398438 14.058593 31.398438 31.398437 0 17.34375-14.054688 31.402344-31.398438 31.402344-17.339844 0-31.398437-14.058594-31.398437-31.402344.015625-17.332031 14.066406-31.378906 31.398437-31.398437zm0 0" fill="url(#g)"/><g fill="url(#h)"><path d="m188.46875 392.492188h15.699219v15.699218h-15.699219zm0 0"/><path d="m219.867188 392.492188h31.398437v15.699218h-31.398437zm0 0"/><path d="m266.964844 392.492188h15.703125v15.699218h-15.703125zm0 0"/></g><path d="m204.167969 204.097656h15.699219v15.699219h-15.699219zm0 0" fill="url(#i)"/><path d="m337.613281 54.949219c0-4.335938-3.515625-7.851563-7.847656-7.851563-4.335937 0-7.851563 3.515625-7.851563 7.851563-.011718 13-10.550781 23.535156-23.546874 23.550781-4.335938 0-7.851563 3.511719-7.851563 7.847656 0 4.335938 3.515625 7.851563 7.851563 7.851563 12.996093.011719 23.535156 10.546875 23.546874 23.546875 0 4.335937 3.515626 7.851562 7.851563 7.851562 4.332031 0 7.847656-3.515625 7.847656-7.851562.015625-13 10.550781-23.535156 23.550781-23.546875 4.335938 0 7.847657-3.515625 7.847657-7.851563 0-4.335937-3.511719-7.847656-7.847657-7.847656-13-.015625-23.535156-10.550781-23.550781-23.550781zm-7.847656 39.492187c-2.289063-3.078125-5.015625-5.804687-8.09375-8.09375 3.078125-2.289062 5.804687-5.015625 8.09375-8.09375 2.289063 3.078125 5.015625 5.804688 8.089844 8.09375-3.074219 2.289063-5.800781 5.015625-8.089844 8.09375zm0 0" fill="url(#j)"/><path d="m62.871094 196.246094c0 4.332031 3.511718 7.847656 7.84375 7.847656h.003906c13 .015625 23.535156 10.550781 23.550781 23.550781 0 4.335938 3.515625 7.847657 7.847657 7.847657 4.335937 0 7.851562-3.511719 7.851562-7.847657.015625-13 10.550781-23.535156 23.550781-23.550781 4.335938 0 7.847657-3.515625 7.847657-7.847656 0-4.335938-3.515626-7.851563-7.847657-7.851563-13-.011719-23.535156-10.546875-23.550781-23.546875 0-4.335937-3.515625-7.851562-7.851562-7.851562-4.332032 0-7.847657 3.515625-7.847657 7.851562-.015625 13-10.550781 23.535156-23.550781 23.546875-4.332031 0-7.847656 3.511719-7.847656 7.847657zm39.246094-8.09375c2.292968 3.078125 5.015624 5.804687 8.09375 8.09375-3.078126 2.289062-5.800782 5.015625-8.09375 8.089844-2.289063-3.074219-5.011719-5.800782-8.089844-8.089844 3.078125-2.289063 5.800781-5.015625 8.089844-8.09375zm0 0" fill="url(#k)"/></svg>